<?xml version="1.0" encoding="UTF-8" standalone="no"?>
<!-- Created with Inkscape (http://www.inkscape.org/) -->

<svg
   xmlns:dc="http://purl.org/dc/elements/1.1/"
   xmlns:cc="http://creativecommons.org/ns#"
   xmlns:rdf="http://www.w3.org/1999/02/22-rdf-syntax-ns#"
   xmlns:svg="http://www.w3.org/2000/svg"
   xmlns="http://www.w3.org/2000/svg"
   xmlns:xlink="http://www.w3.org/1999/xlink"
   xmlns:sodipodi="http://sodipodi.sourceforge.net/DTD/sodipodi-0.dtd"
   xmlns:inkscape="http://www.inkscape.org/namespaces/inkscape"
   width="192"
   height="192"
   viewBox="0 0 192 192"
   id="svg2"
   version="1.1"
   inkscape:version="0.91 r13725"
   sodipodi:docname="soundrecorder.svg"
   inkscape:export-filename="C:\createme\Material Design Icons\PNG\soundrecorder.png"
   inkscape:export-xdpi="90"
   inkscape:export-ydpi="90">
  <sodipodi:namedview
     id="base"
     pagecolor="#ffffff"
     bordercolor="#666666"
     borderopacity="1.0"
     inkscape:pageopacity="0.0"
     inkscape:pageshadow="2"
     inkscape:zoom="1"
     inkscape:cx="261.35812"
     inkscape:cy="229.72181"
     inkscape:document-units="px"
     inkscape:current-layer="layer3"
     showgrid="false"
     units="px"
     showguides="true"
     inkscape:window-width="1920"
     inkscape:window-height="1017"
     inkscape:window-x="-8"
     inkscape:window-y="-8"
     inkscape:window-maximized="1">
    <sodipodi:guide
       inkscape:color="rgb(0,0,255)"
       inkscape:label=""
       id="guide3354"
       orientation="0,1"
       position="0,184" />
    <sodipodi:guide
       inkscape:color="rgb(0,0,255)"
       inkscape:label=""
       id="guide3356"
       orientation="1,0"
       position="8,0" />
    <sodipodi:guide
       inkscape:color="rgb(0,0,255)"
       inkscape:label=""
       id="guide3358"
       orientation="0,1"
       position="0,8" />
    <sodipodi:guide
       inkscape:color="rgb(0,0,255)"
       inkscape:label=""
       id="guide3360"
       orientation="1,0"
       position="184,0" />
    <sodipodi:guide
       inkscape:color="rgb(0,0,255)"
       inkscape:label=""
       id="guide3362"
       orientation="0,1"
       position="0,20" />
    <sodipodi:guide
       inkscape:color="rgb(0,0,255)"
       inkscape:label=""
       id="guide3364"
       orientation="1,0"
       position="172,0" />
    <sodipodi:guide
       inkscape:color="rgb(0,0,255)"
       inkscape:label=""
       id="guide3366"
       orientation="0,1"
       position="96,172" />
    <sodipodi:guide
       inkscape:color="rgb(0,0,255)"
       inkscape:label=""
       id="guide3368"
       orientation="1,0"
       position="20,0" />
    <sodipodi:guide
       inkscape:color="rgb(0,0,255)"
       inkscape:label=""
       id="guide3370"
       orientation="0,1"
       position="0,32" />
    <sodipodi:guide
       inkscape:color="rgb(0,0,255)"
       inkscape:label=""
       id="guide3372"
       orientation="1,0"
       position="160,0" />
    <sodipodi:guide
       inkscape:color="rgb(0,0,255)"
       inkscape:label=""
       id="guide3374"
       orientation="0,1"
       position="0,160" />
    <sodipodi:guide
       inkscape:color="rgb(0,0,255)"
       inkscape:label=""
       id="guide3376"
       orientation="1,0"
       position="32,0" />
    <inkscape:grid
       id="grid3378"
       type="xygrid" />
    <sodipodi:guide
       inkscape:color="rgb(255,0,0)"
       inkscape:label=""
       id="guide5849"
       orientation="-0.70710678,0.70710678"
       position="0,0" />
    <sodipodi:guide
       inkscape:color="rgb(255,0,0)"
       inkscape:label=""
       id="guide5851"
       orientation="1,0"
       position="124,0" />
    <sodipodi:guide
       inkscape:color="rgb(255,0,0)"
       inkscape:label=""
       id="guide5853"
       orientation="0.70710678,0.70710678"
       position="0,192" />
    <sodipodi:guide
       inkscape:color="rgb(255,0,0)"
       inkscape:label=""
       id="guide5855"
       orientation="1,0"
       position="96,0" />
    <sodipodi:guide
       inkscape:color="rgb(255,0,0)"
       inkscape:label=""
       id="guide5859"
       orientation="0,1"
       position="0,96" />
    <sodipodi:guide
       inkscape:color="rgb(255,0,0)"
       inkscape:label=""
       id="guide5861"
       orientation="0,1"
       position="0,124" />
    <sodipodi:guide
       inkscape:color="rgb(255,0,0)"
       inkscape:label=""
       id="guide5863"
       orientation="0,1"
       position="0,68" />
    <sodipodi:guide
       inkscape:color="rgb(255,0,0)"
       inkscape:label=""
       id="guide5865"
       orientation="1,0"
       position="68,0" />
    <sodipodi:guide
       id="guide5869"
       orientation="-192,0"
       position="192,0" />
    <sodipodi:guide
       id="guide5871"
       orientation="0,-192"
       position="192,192" />
  </sodipodi:namedview>
  <defs
     id="defs4">
    <linearGradient
       inkscape:collect="always"
       id="linearGradient7474">
      <stop
         style="stop-color:#3e2723;stop-opacity:1;"
         offset="0"
         id="stop7476" />
      <stop
         style="stop-color:#3e2723;stop-opacity:0;"
         offset="1"
         id="stop7478" />
    </linearGradient>
    <linearGradient
       id="linearGradient4198"
       inkscape:collect="always">
      <stop
         id="stop4200"
         offset="0"
         style="stop-color:#ffffff;stop-opacity:1;" />
      <stop
         id="stop4202"
         offset="1"
         style="stop-color:#ffffff;stop-opacity:0;" />
    </linearGradient>
    <clipPath
       id="clipPath10430"
       clipPathUnits="userSpaceOnUse">
      <path
         id="path10432"
         d="m 1241.028,39.3409 224.537,0 0,178.031 -224.537,0 0,-178.031 z"
         inkscape:connector-curvature="0" />
    </clipPath>
    <clipPath
       id="clipPath10438"
       clipPathUnits="userSpaceOnUse">
      <path
         id="path10440"
         d="m 1260.156,213.3477 0,-170.2268 191.3337,0 0,170.2268"
         inkscape:connector-curvature="0" />
    </clipPath>
    <filter
       id="filter5248"
       inkscape:label="Drop Shadow"
       style="color-interpolation-filters:sRGB;">
      <feFlood
         id="feFlood5250"
         result="flood"
         flood-color="rgb(0,0,0)"
         flood-opacity="0.2" />
      <feComposite
         id="feComposite5252"
         result="composite1"
         operator="in"
         in2="SourceGraphic"
         in="flood" />
      <feGaussianBlur
         id="feGaussianBlur5254"
         result="blur"
         stdDeviation="2"
         in="composite1" />
      <feOffset
         id="feOffset5256"
         result="offset"
         dy="4"
         dx="4.57967e-015" />
      <feComposite
         id="feComposite5258"
         result="fbSourceGraphic"
         operator="over"
         in2="offset"
         in="SourceGraphic" />
      <feColorMatrix
         id="feColorMatrix5903"
         values="0 0 0 -1 0 0 0 0 -1 0 0 0 0 -1 0 0 0 0 1 0"
         in="fbSourceGraphic"
         result="fbSourceGraphicAlpha" />
      <feFlood
         in="fbSourceGraphic"
         result="flood"
         flood-color="rgb(0,0,0)"
         flood-opacity="0.2"
         id="feFlood5905" />
      <feComposite
         result="composite1"
         operator="in"
         in="flood"
         in2="fbSourceGraphic"
         id="feComposite5907" />
      <feGaussianBlur
         result="blur"
         stdDeviation="2"
         in="composite1"
         id="feGaussianBlur5909" />
      <feOffset
         result="offset"
         dy="0"
         dx="0"
         id="feOffset5911" />
      <feComposite
         result="composite2"
         operator="over"
         in="fbSourceGraphic"
         in2="offset"
         id="feComposite5913" />
    </filter>
    <radialGradient
       gradientTransform="matrix(0,2,-2,0,24,-8)"
       gradientUnits="userSpaceOnUse"
       r="88"
       fy="8"
       fx="8"
       cy="8"
       cx="8"
       id="radialGradient4204"
       xlink:href="#linearGradient4198"
       inkscape:collect="always" />
    <linearGradient
       inkscape:collect="always"
       xlink:href="#linearGradient7474"
       id="linearGradient7480"
       x1="48.997559"
       y1="48.997559"
       x2="160"
       y2="160"
       gradientUnits="userSpaceOnUse" />
    <filter
       style="color-interpolation-filters:sRGB;"
       inkscape:label="Drop Shadow"
       id="filter7488"
       height="1.3">
      <feFlood
         flood-opacity="0.2"
         flood-color="rgb(62,39,35)"
         result="flood"
         id="feFlood7490" />
      <feComposite
         in="flood"
         in2="SourceGraphic"
         operator="in"
         result="composite1"
         id="feComposite7492" />
      <feGaussianBlur
         in="composite1"
         stdDeviation="4"
         result="blur"
         id="feGaussianBlur7494" />
      <feOffset
         dx="0"
         dy="4"
         result="offset"
         id="feOffset7496" />
      <feComposite
         in="SourceGraphic"
         in2="offset"
         operator="over"
         result="composite2"
         id="feComposite7498" />
    </filter>
  </defs>
  <metadata
     id="metadata7">
    <rdf:RDF>
      <cc:Work
         rdf:about="">
        <dc:format>image/svg+xml</dc:format>
        <dc:type
           rdf:resource="http://purl.org/dc/dcmitype/StillImage" />
        <dc:title></dc:title>
      </cc:Work>
    </rdf:RDF>
  </metadata>
  <g
     inkscape:label="background"
     id="layer2"
     inkscape:groupmode="layer">
    <circle
       r="88"
       cy="96"
       cx="96"
       id="path4184"
       style="display:inline;opacity:1;fill:#f44336;fill-opacity:1;fill-rule:nonzero;stroke:none;stroke-width:2.94899988;stroke-linecap:butt;stroke-linejoin:miter;stroke-miterlimit:4;stroke-dasharray:none;stroke-dashoffset:0;stroke-opacity:1;filter:url(#filter5248)" />
  </g>
  <g
     transform="translate(0,-860.36216)"
     id="layer1"
     inkscape:groupmode="layer"
     inkscape:label="objects">
    <path
       style="fill:url(#linearGradient7480);opacity:0.2;fill-opacity:1"
       d="M 96.568359 48.998047 C 87.794074 48.998047 80.710937 56.081179 80.710938 64.855469 L 80.710938 96.568359 C 80.710938 101.10056 82.610008 105.17197 85.646484 108.05859 C 85.830708 108.25238 86.019132 108.44075 86.212891 108.625 C 86.396754 108.81835 86.585939 109.0056 86.779297 109.18945 C 86.963264 109.38288 87.150281 109.57194 87.34375 109.75586 C 87.526499 109.9479 87.71413 110.13374 87.90625 110.31641 C 88.086725 110.50603 88.271322 110.69061 88.460938 110.87109 C 88.643606 111.06321 88.829441 111.25085 89.021484 111.43359 C 89.202633 111.62396 89.387767 111.80908 89.578125 111.99023 C 89.758898 112.18019 89.944822 112.36413 90.134766 112.54492 C 90.314061 112.7333 90.49723 112.91635 90.685547 113.0957 C 90.865111 113.28443 91.047711 113.46876 91.236328 113.64844 C 91.417101 113.8384 91.603025 114.02235 91.792969 114.20312 C 91.970756 114.38974 92.151244 114.57226 92.337891 114.75 C 92.513398 114.9343 92.692805 115.1134 92.876953 115.28906 C 93.05926 115.48073 93.24586 115.66727 93.4375 115.84961 C 93.612141 116.03269 93.791432 116.21023 93.974609 116.38477 C 94.151377 116.5703 94.332052 116.75096 94.517578 116.92773 C 94.692751 117.11158 94.870912 117.29155 95.054688 117.4668 C 95.229517 117.65032 95.408396 117.82895 95.591797 118.00391 C 95.770431 118.19146 95.953044 118.37413 96.140625 118.55273 C 96.312842 118.73315 96.487457 118.90992 96.667969 119.08203 C 96.841912 119.26446 97.020708 119.44128 97.203125 119.61523 C 97.377415 119.798 97.555485 119.97613 97.738281 120.15039 C 97.911435 120.33185 98.087989 120.50858 98.269531 120.68164 C 98.44104 120.86136 98.617136 121.03555 98.796875 121.20703 C 98.968743 121.38717 99.142129 121.56445 99.322266 121.73633 C 99.493732 121.91604 99.669914 122.09024 99.849609 122.26172 C 100.02053 122.44083 100.19395 122.61618 100.37305 122.78711 C 100.51054 122.93117 100.64821 123.0741 100.79102 123.21289 C 99.401985 123.41809 97.990867 123.52539 96.568359 123.52539 C 96.184972 123.52539 95.803434 123.51522 95.421875 123.5 C 95.421825 123.4783 95.419922 123.45727 95.419922 123.43555 L 94.945312 123.43555 C 94.942467 123.27293 94.933594 123.11285 94.933594 122.94922 L 94.458984 122.94922 C 94.456116 122.78596 94.447266 122.62523 94.447266 122.46094 L 93.970703 122.46094 C 93.967811 122.29701 93.957031 122.13567 93.957031 121.9707 L 93.480469 121.9707 C 93.477577 121.80677 93.466797 121.64543 93.466797 121.48047 L 92.986328 121.48047 C 92.983405 121.31567 92.972656 121.15412 92.972656 120.98828 L 92.492188 120.98828 C 92.489226 120.82241 92.478516 120.65912 92.478516 120.49219 L 91.996094 120.49219 C 91.993148 120.32674 91.982422 120.16455 91.982422 119.99805 L 91.5 119.99805 C 91.497015 119.83152 91.486328 119.66759 91.486328 119.5 L 91 119.5 C 90.996992 119.33283 90.986328 119.16825 90.986328 119 L 90.5 119 C 90.496992 118.83283 90.486328 118.66825 90.486328 118.5 L 89.996094 118.5 C 89.993054 118.33196 89.982422 118.16718 89.982422 117.99805 L 89.492188 117.99805 C 89.489109 117.82893 89.478516 117.66241 89.478516 117.49219 L 88.986328 117.49219 C 88.983265 117.3235 88.972656 117.15807 88.972656 116.98828 L 88.480469 116.98828 C 88.477366 116.81852 88.466797 116.65134 88.466797 116.48047 L 87.970703 116.48047 C 87.967577 116.31006 87.957031 116.14224 87.957031 115.9707 L 87.460938 115.9707 C 87.457811 115.80029 87.447266 115.63247 87.447266 115.46094 L 86.947266 115.46094 C 86.944115 115.28988 86.933594 115.12141 86.933594 114.94922 L 86.433594 114.94922 C 86.430411 114.77728 86.419922 114.60862 86.419922 114.43555 L 85.917969 114.43555 C 85.91477 114.26319 85.904297 114.09343 85.904297 113.91992 L 85.402344 113.91992 C 85.399121 113.74692 85.388672 113.5765 85.388672 113.40234 L 84.882812 113.40234 C 84.879565 113.22869 84.869141 113.05763 84.869141 112.88281 L 84.363281 112.88281 C 84.360034 112.70916 84.349609 112.5381 84.349609 112.36328 L 83.841797 112.36328 C 83.838525 112.18898 83.828125 112.01727 83.828125 111.8418 L 83.318359 111.8418 C 83.315063 111.66684 83.304688 111.4945 83.304688 111.31836 L 82.792969 111.31836 C 82.789648 111.14276 82.779297 110.96976 82.779297 110.79297 L 82.265625 110.79297 C 82.26228 110.61673 82.251953 110.44308 82.251953 110.26562 L 81.736328 110.26562 C 81.732983 110.08939 81.722656 109.91572 81.722656 109.73828 L 81.207031 109.73828 C 81.203637 109.56074 81.193359 109.38579 81.193359 109.20703 L 80.675781 109.20703 C 80.672387 109.02949 80.662109 108.85454 80.662109 108.67578 L 80.142578 108.67578 C 80.139158 108.49759 80.128906 108.32199 80.128906 108.14258 L 79.607422 108.14258 C 79.603977 107.96374 79.59375 107.78749 79.59375 107.60742 L 79.070312 107.60742 C 79.066844 107.42794 79.056641 107.25104 79.056641 107.07031 L 78.533203 107.07031 C 78.529733 106.89083 78.519531 106.71393 78.519531 106.5332 L 77.992188 106.5332 C 77.988682 106.35284 77.978516 106.17577 77.978516 105.99414 L 77.451172 105.99414 C 77.447626 105.81272 77.4375 105.63387 77.4375 105.45117 L 76.908203 105.45117 C 76.904658 105.26975 76.894531 105.0909 76.894531 104.9082 L 76.363281 104.9082 C 76.35971 104.72613 76.349609 104.54664 76.349609 104.36328 L 75.818359 104.36328 C 75.814788 104.18121 75.804688 104.00171 75.804688 103.81836 L 75.269531 103.81836 C 75.265909 103.63499 75.255859 103.4542 75.255859 103.26953 L 74.720703 103.26953 C 74.717081 103.08616 74.707031 102.90537 74.707031 102.7207 L 74.169922 102.7207 C 74.166274 102.53668 74.15625 102.35525 74.15625 102.16992 L 73.617188 102.16992 C 73.613512 101.98525 73.603516 101.80318 73.603516 101.61719 L 73.064453 101.61719 C 73.060753 101.43186 73.048828 101.24916 73.048828 101.0625 L 72.507812 101.0625 C 72.504086 100.87653 72.492188 100.69317 72.492188 100.50586 L 71.949219 100.50586 C 71.945492 100.31989 71.933594 100.13653 71.933594 99.949219 L 71.390625 99.949219 C 71.386846 99.76195 71.375 99.577298 71.375 99.388672 L 70.830078 99.388672 C 70.826299 99.201403 70.814453 99.016751 70.814453 98.828125 L 70.267578 98.828125 C 70.263773 98.640209 70.251953 98.454908 70.251953 98.265625 L 69.703125 98.265625 C 69.699294 98.077062 69.6875 97.891111 69.6875 97.701172 L 69.136719 97.701172 C 69.132887 97.512608 69.121094 97.326658 69.121094 97.136719 L 68.570312 97.136719 C 68.566429 96.946861 68.554688 96.759612 68.554688 96.568359 L 59.568359 96.568359 C 59.568359 106.33608 63.77118 115.15807 70.365234 121.61719 C 70.546775 121.80271 70.73064 121.98616 70.916016 122.16797 C 71.094399 122.35048 71.274938 122.53006 71.457031 122.70898 C 71.648046 122.90475 71.841833 123.09742 72.037109 123.28906 C 72.229857 123.48634 72.424015 123.68191 72.621094 123.875 C 72.800571 124.05837 72.982791 124.23822 73.166016 124.41797 C 73.342005 124.59798 73.519619 124.77662 73.699219 124.95312 C 73.894099 125.15282 74.091701 125.34953 74.291016 125.54492 C 74.470372 125.7282 74.652837 125.90823 74.835938 126.08789 C 75.018055 126.27414 75.202691 126.45812 75.388672 126.64062 C 75.56886 126.82491 75.751576 127.00688 75.935547 127.1875 C 76.110952 127.36694 76.287804 127.54473 76.466797 127.7207 C 76.660421 127.91904 76.856688 128.11449 77.054688 128.30859 C 77.229523 128.48715 77.407545 128.66278 77.585938 128.83789 C 77.760183 129.01606 77.935497 129.19243 78.113281 129.36719 C 78.29803 129.55632 78.485097 129.74245 78.673828 129.92773 C 78.858384 130.11642 79.045854 130.30148 79.234375 130.48633 C 79.405371 130.66092 79.577558 130.83456 79.751953 131.00586 C 79.931247 131.18921 80.113836 131.3691 80.296875 131.54883 C 80.466639 131.72237 80.637425 131.89416 80.810547 132.06445 C 80.998426 132.25682 81.188862 132.44638 81.380859 132.63477 C 81.551269 132.80878 81.724651 132.97965 81.898438 133.15039 C 82.068104 133.32386 82.239089 133.49579 82.412109 133.66602 C 82.600003 133.85837 82.79041 134.04796 82.982422 134.23633 C 83.144108 134.40136 83.307931 134.56447 83.472656 134.72656 C 83.657991 134.91627 83.845815 135.10323 84.035156 135.28906 C 84.204302 135.46173 84.376356 135.63133 84.548828 135.80078 C 84.722019 135.97775 84.897537 136.15258 85.074219 136.32617 C 85.244521 136.50016 85.416166 136.67303 85.589844 136.84375 C 85.763398 137.02113 85.940126 137.19515 86.117188 137.36914 C 86.287006 137.54263 86.457685 137.71452 86.630859 137.88477 C 86.803139 138.06082 86.978561 138.23354 87.154297 138.40625 C 87.324611 138.58023 87.496232 138.75312 87.669922 138.92383 C 87.839598 139.09714 88.012521 139.26743 88.185547 139.4375 C 88.352984 139.60851 88.52266 139.77746 88.693359 139.94531 C 88.856008 140.11148 89.019818 140.27626 89.185547 140.43945 C 89.365147 140.62318 89.547108 140.80428 89.730469 140.98438 C 89.894183 141.1514 90.059735 141.31645 90.226562 141.48047 C 90.393361 141.65079 90.562387 141.81914 90.732422 141.98633 C 90.900918 142.15838 91.072343 142.32723 91.244141 142.49609 C 91.257683 142.50992 91.269639 142.52526 91.283203 142.53906 L 91.283203 149.42578 L 91.851562 149.42578 L 91.851562 149.99414 L 92.416016 149.99414 L 92.416016 150.55859 L 92.980469 150.55859 L 92.980469 151.12305 L 93.542969 151.12305 L 93.542969 151.68555 L 94.103516 151.68555 L 94.103516 152.24609 L 94.664062 152.24609 L 94.664062 152.80664 L 95.220703 152.80664 L 95.220703 153.36328 L 95.777344 153.36328 L 95.777344 153.91992 L 96.332031 153.91992 L 96.332031 154.47461 L 96.884766 154.47461 L 96.884766 155.02734 L 97.435547 155.02734 L 97.435547 155.57812 L 97.984375 155.57812 L 97.984375 156.12695 L 98.533203 156.12695 L 98.533203 156.67578 L 99.078125 156.67578 L 99.078125 157.2207 L 99.623047 157.2207 L 99.623047 157.76562 L 100.16602 157.76562 L 100.16602 158.30859 L 100.70703 158.30859 L 100.70703 158.84961 L 101.24805 158.84961 L 101.24805 159.39062 L 101.78516 159.39062 L 101.78516 159.92773 L 102.32227 159.92773 L 102.32227 160.46484 L 102.85742 160.46484 L 102.85742 161 L 103.39062 161 L 103.39062 161.5332 L 103.92188 161.5332 L 103.92188 162.06445 L 104.45117 162.06445 L 104.45117 162.5957 L 104.98047 162.5957 L 104.98047 163.12305 L 105.50781 163.12305 L 105.50781 163.65039 L 106.0332 163.65039 L 106.0332 164.17578 L 106.55664 164.17578 L 106.55664 164.69922 L 107.07812 164.69922 L 107.07812 165.2207 L 107.59766 165.2207 L 107.59766 165.74023 L 108.11719 165.74023 L 108.11719 166.25977 L 108.63281 166.25977 L 108.63281 166.77734 L 109.14844 166.77734 L 109.14844 167.29102 L 109.66211 167.29102 L 109.66211 167.80664 L 110.17578 167.80664 L 110.17578 168.31836 L 110.68555 168.31836 L 110.68555 168.82812 L 111.19531 168.82812 L 111.19531 169.33789 L 111.70117 169.33789 L 111.70117 169.8457 L 112.20703 169.8457 L 112.20703 170.34961 L 112.71094 170.34961 L 112.71094 170.85352 L 113.21484 170.85352 L 113.21484 171.35742 L 113.71484 171.35742 L 113.71484 171.85742 L 114.21484 171.85742 L 114.21484 172.35742 L 114.71094 172.35742 L 114.71094 172.85352 L 115.20703 172.85352 L 115.20703 173.34961 L 115.70117 173.34961 L 115.70117 173.84375 L 116.19531 173.84375 L 116.19531 174.33789 L 116.68555 174.33789 L 116.68555 174.82812 L 117.17578 174.82812 L 117.17578 175.31836 L 117.66211 175.31836 L 117.66211 175.80469 L 118.14844 175.80469 L 118.14844 176.29102 L 118.63281 176.29102 L 118.63281 176.77734 L 119.11719 176.77734 L 119.11719 177.25977 L 119.59766 177.25977 L 119.59766 177.74023 L 120.07812 177.74023 L 120.07812 178.2207 L 120.55664 178.2207 L 120.55664 178.69922 L 121.03125 178.69922 L 121.03125 179.17578 L 121.50781 179.17578 L 121.50781 179.65039 L 121.98047 179.65039 L 121.98047 179.98242 A 88 88 0 0 0 179.01953 124.88086 C 179.00638 124.86796 178.99368 124.85465 178.98047 124.8418 C 178.8805 124.7391 178.77849 124.63902 178.67578 124.53906 C 178.57513 124.43565 178.47452 124.33306 178.37109 124.23242 C 178.27015 124.12868 178.16819 124.02672 178.06445 123.92578 C 177.96322 123.82175 177.8599 123.72036 177.75586 123.61914 C 177.65363 123.51403 177.55041 123.41084 177.44531 123.30859 C 177.34308 123.20348 177.23986 123.10029 177.13477 122.99805 C 177.03127 122.89159 176.92675 122.78711 176.82031 122.68359 C 176.71651 122.57683 176.61262 122.471 176.50586 122.36719 C 176.4021 122.26048 176.29617 122.15649 176.18945 122.05273 C 176.08439 121.94463 175.97919 121.83749 175.87109 121.73242 C 175.76538 121.62367 175.65761 121.5178 175.54883 121.41211 C 175.44346 121.30373 175.33693 121.19713 175.22852 121.0918 C 175.12253 120.98274 175.01532 120.8755 174.90625 120.76953 C 174.79928 120.65943 174.69214 120.55032 174.58203 120.44336 C 174.47474 120.3329 174.36436 120.22643 174.25391 120.11914 C 174.14564 120.00768 174.03727 119.89731 173.92578 119.78906 C 173.8179 119.67799 173.70873 119.56881 173.59766 119.46094 C 173.48847 119.34847 173.37809 119.23809 173.26562 119.12891 C 173.15905 119.01914 173.0511 118.91134 172.94141 118.80469 C 172.82593 118.68556 172.70899 118.56858 172.58984 118.45312 C 172.48186 118.34207 172.3729 118.23287 172.26172 118.125 C 172.15132 118.01125 172.03953 117.89946 171.92578 117.78906 C 171.81471 117.67458 171.70236 117.56226 171.58789 117.45117 C 171.47527 117.33505 171.36025 117.22199 171.24414 117.10938 C 171.13151 116.99326 171.01846 116.87826 170.90234 116.76562 C 170.78937 116.64915 170.67508 116.53485 170.55859 116.42188 C 170.44568 116.30544 170.33127 116.19106 170.21484 116.07812 C 170.09999 115.95963 169.98372 115.84339 169.86523 115.72852 C 169.75003 115.60968 169.63253 115.49408 169.51367 115.37891 C 169.39845 115.26008 169.28293 115.14251 169.16406 115.02734 C 169.04885 114.90851 168.93136 114.79291 168.8125 114.67773 C 168.69576 114.55726 168.57753 114.43899 168.45703 114.32227 C 168.34127 114.2028 168.22493 114.08452 168.10547 113.96875 C 167.98717 113.84661 167.86629 113.72765 167.74414 113.60938 C 167.6264 113.48786 167.50827 113.36769 167.38672 113.25 C 167.26905 113.12854 167.14883 113.01022 167.02734 112.89258 C 166.90809 112.76942 166.78724 112.64853 166.66406 112.5293 C 166.54411 112.40542 166.42274 112.28397 166.29883 112.16406 C 166.17957 112.04091 166.05873 111.92002 165.93555 111.80078 C 165.81498 111.67622 165.69294 111.55414 165.56836 111.43359 C 165.44785 111.30909 165.32569 111.1869 165.20117 111.06641 C 165.0794 110.94056 164.95594 110.81706 164.83008 110.69531 C 164.70831 110.56947 164.58484 110.44597 164.45898 110.32422 C 164.3362 110.19729 164.21092 110.07394 164.08398 109.95117 C 163.96088 109.82389 163.83627 109.69928 163.70898 109.57617 C 163.58494 109.44791 163.46033 109.32128 163.33203 109.19727 C 163.20867 109.06973 163.08264 108.9456 162.95508 108.82227 C 162.83047 108.69338 162.70506 108.56601 162.57617 108.44141 C 162.45094 108.31185 162.32292 108.18577 162.19336 108.06055 C 162.0668 107.92959 161.93958 107.80036 161.80859 107.67383 C 161.68369 107.54462 161.55695 107.41787 161.42773 107.29297 C 161.29998 107.16072 161.16937 107.03204 161.03711 106.9043 C 160.91061 106.77341 160.78326 106.64405 160.65234 106.51758 C 160.5246 106.38533 160.39397 106.25664 160.26172 106.12891 C 160.13329 105.99592 160.00409 105.86475 159.87109 105.73633 C 159.74145 105.60207 159.6089 105.47141 159.47461 105.3418 C 159.34654 105.2092 159.21659 105.07924 159.08398 104.95117 C 158.9531 104.81556 158.82117 104.68166 158.68555 104.55078 C 158.55521 104.4158 158.42214 104.28458 158.28711 104.1543 C 158.15614 104.01864 158.02438 103.88482 157.88867 103.75391 C 157.75772 103.61824 157.62398 103.48639 157.48828 103.35547 C 157.35639 103.21876 157.22264 103.08503 157.08594 102.95312 C 156.95411 102.81649 156.82023 102.68262 156.68359 102.55078 C 156.55047 102.41271 156.41537 102.2777 156.27734 102.14453 C 156.14422 102.00646 156.00912 101.87145 155.87109 101.73828 C 155.73614 101.59826 155.59899 101.46115 155.45898 101.32617 C 155.32458 101.18677 155.18823 101.05042 155.04883 100.91602 C 154.91451 100.77666 154.77798 100.64022 154.63867 100.50586 C 154.50182 100.36382 154.36274 100.22474 154.2207 100.08789 C 154.08509 99.947232 153.94734 99.809395 153.80664 99.673828 C 153.6698 99.5318 153.5307 99.392699 153.38867 99.255859 C 153.25438 99.116483 153.1178 98.980085 152.97852 98.845703 C 152.83602 98.697576 152.6911 98.552649 152.54297 98.410156 C 152.4063 98.268445 152.26684 98.13068 152.125 97.994141 C 151.9875 97.851406 151.84782 97.711714 151.70508 97.574219 C 151.56477 97.428463 151.42311 97.284828 151.27734 97.144531 C 151.13758 96.999411 150.99479 96.858455 150.84961 96.71875 C 150.70922 96.572953 150.56773 96.429395 150.42188 96.289062 C 150.2815 96.143254 150.13803 96.001672 149.99219 95.861328 C 149.85087 95.714474 149.7074 95.571001 149.56055 95.429688 C 149.41796 95.281505 149.27323 95.136681 149.125 94.994141 C 148.98375 94.847359 148.84015 94.703747 148.69336 94.5625 C 148.55052 94.413955 148.40632 94.267881 148.25781 94.125 C 148.11371 93.975117 147.96628 93.829664 147.81641 93.685547 C 147.67266 93.536065 147.52644 93.389839 147.37695 93.246094 C 147.2325 93.095873 147.08579 92.949115 146.93555 92.804688 C 146.79112 92.654443 146.64436 92.507732 146.49414 92.363281 C 146.34725 92.210425 146.1978 92.060924 146.04492 91.914062 C 145.8992 91.762517 145.75123 91.6144 145.59961 91.46875 C 145.45361 91.316862 145.30622 91.167452 145.1543 91.021484 C 145.00648 90.867637 144.85506 90.718088 144.70117 90.570312 C 144.55429 90.417466 144.40483 90.267947 144.25195 90.121094 C 144.10312 89.966153 143.95186 89.814799 143.79688 89.666016 C 143.64903 89.512154 143.49767 89.362631 143.34375 89.214844 C 143.19435 89.059247 143.04232 88.907204 142.88672 88.757812 C 142.73732 88.602216 142.58529 88.450172 142.42969 88.300781 C 142.2803 88.145179 142.12825 87.993146 141.97266 87.84375 C 141.82046 87.685122 141.66645 87.529136 141.50781 87.376953 C 141.35811 87.22105 141.20477 87.069594 141.04883 86.919922 C 140.89723 86.761863 140.74393 86.606741 140.58594 86.455078 C 140.43341 86.296026 140.27814 86.140857 140.11914 85.988281 C 139.96565 85.828217 139.80849 85.673036 139.64844 85.519531 C 139.4953 85.359875 139.33935 85.20391 139.17969 85.050781 C 139.02585 84.890379 138.86941 84.733891 138.70898 84.580078 C 138.55517 84.419652 138.39868 84.263213 138.23828 84.109375 C 138.08202 83.946336 137.92283 83.787096 137.75977 83.630859 C 137.60529 83.469794 137.44823 83.312625 137.28711 83.158203 C 137.13118 82.995512 136.97325 82.835605 136.81055 82.679688 C 136.65426 82.516597 136.49512 82.357457 136.33203 82.201172 C 136.17612 82.038471 136.0162 81.880538 135.85352 81.724609 C 135.69506 81.559109 135.5346 81.396781 135.36914 81.238281 C 135.21064 81.07282 135.04831 80.912365 134.88281 80.753906 C 134.72397 80.58811 134.56236 80.426341 134.39648 80.267578 C 134.23827 80.102446 134.07729 79.941359 133.91211 79.783203 C 133.75148 79.615433 133.58775 79.45159 133.41992 79.291016 C 133.26181 79.12594 133.10063 78.964748 132.93555 78.806641 C 132.7737 78.637485 132.60861 78.472392 132.43945 78.310547 C 132.27812 78.142037 132.1139 77.977656 131.94531 77.816406 C 131.78469 77.648641 131.62094 77.484788 131.45312 77.324219 C 131.29088 77.154639 131.12467 76.990358 130.95508 76.828125 C 130.79164 76.657278 130.62597 76.489563 130.45508 76.326172 C 130.29324 76.157027 130.12814 75.991914 129.95898 75.830078 C 129.79402 75.657543 129.62569 75.489154 129.45312 75.324219 C 129.28931 75.152994 129.12248 74.986 128.95117 74.822266 C 128.78713 74.650745 128.61882 74.484319 128.44727 74.320312 C 128.28192 74.147336 128.11439 73.977839 127.94141 73.8125 C 127.77487 73.638258 127.60397 73.469227 127.42969 73.302734 C 127.26504 73.130512 127.098 72.961527 126.92578 72.796875 C 126.7574 72.62058 126.58451 72.449618 126.4082 72.28125 C 126.24095 72.106279 126.07155 71.934733 125.89648 71.767578 C 125.72861 71.591929 125.55661 71.42168 125.38086 71.253906 C 125.2133 71.078557 125.04259 70.907737 124.86719 70.740234 C 124.69841 70.563499 124.52635 70.391426 124.34961 70.222656 C 124.18092 70.046002 124.00868 69.873776 123.83203 69.705078 C 123.66205 69.526953 123.48862 69.353634 123.31055 69.183594 C 123.1397 69.004563 122.96612 68.829066 122.78711 68.658203 C 122.61625 68.479188 122.44075 68.305612 122.26172 68.134766 C 122.08927 67.954056 121.91319 67.777855 121.73242 67.605469 C 121.56152 67.426447 121.38611 67.252882 121.20703 67.082031 C 121.03356 66.900211 120.85767 66.722225 120.67578 66.548828 C 120.50461 66.369461 120.32977 66.194605 120.15039 66.023438 C 119.97669 65.841228 119.79934 65.663993 119.61719 65.490234 C 119.44285 65.307359 119.26488 65.12944 119.08203 64.955078 C 118.90744 64.771945 118.72805 64.594517 118.54492 64.419922 C 118.37096 64.237461 118.19416 64.058751 118.01172 63.884766 C 117.83521 63.699482 117.65399 63.5203 117.46875 63.34375 C 117.2922 63.158508 117.11302 62.977288 116.92773 62.800781 C 116.75189 62.61631 116.57123 62.437527 116.38672 62.261719 C 116.20965 62.075868 116.02961 61.893859 115.84375 61.716797 C 115.66703 61.53128 115.48626 61.35059 115.30078 61.173828 C 115.12094 60.984915 114.93696 60.800933 114.74805 60.621094 C 114.57099 60.435237 114.38898 60.255194 114.20312 60.078125 C 114.02416 59.890099 113.84225 59.706385 113.6543 59.527344 C 113.47289 59.336718 113.28634 59.152093 113.0957 58.970703 C 112.91635 58.782386 112.7333 58.599217 112.54492 58.419922 C 112.36406 58.229896 112.18028 58.044128 111.99023 57.863281 C 111.80916 57.673018 111.62387 57.487703 111.43359 57.306641 C 111.25118 57.114946 111.0648 56.928448 110.87305 56.746094 C 110.69162 56.555506 110.50511 56.370805 110.31445 56.189453 C 110.1315 55.99711 109.9443 55.809897 109.75195 55.626953 C 109.569 55.43461 109.3818 55.247398 109.18945 55.064453 C 109.00588 54.871436 108.81804 54.683553 108.625 54.5 C 108.43947 54.304859 108.24989 54.115156 108.05469 53.929688 C 105.16824 50.895097 101.09895 48.998047 96.568359 48.998047 z "
       transform="translate(0,860.36216)"
       id="path6011" />
    <path
       id="path5917"
       d="m 95.999998,972.2191 c 8.774282,0 15.804282,-7.08286 15.804282,-15.85715 l 0.0529,-31.71428 c 0,-8.77429 -7.08286,-15.85715 -15.857142,-15.85715 -8.774285,0 -15.857142,7.08286 -15.857142,15.85715 l 0,31.71428 c 0,8.77429 7.082857,15.85715 15.857142,15.85715 z m 28.014292,-15.85715 c 0,15.85715 -13.42572,26.95721 -28.014292,26.95721 -14.588571,0 -28.014285,-11.10006 -28.014285,-26.95721 l -8.985714,0 c 0,18.07711 14.377143,32.93011 31.714285,35.52011 l 0,17.33714 10.571426,0 0,-17.33714 C 118.62286,989.34486 133,974.43906 133,956.36195 l -8.98571,0 z"
       inkscape:connector-curvature="0"
       style="fill:#f5f5f5;filter:url(#filter7488)" />
    <g
       id="g5948">
      <path
         style="fill:#ffffff;opacity:0.2"
         d="M 96 48.427734 C 87.225715 48.427734 80.142578 55.510866 80.142578 64.285156 L 80.142578 65.285156 C 80.142578 56.510866 87.225715 49.427734 96 49.427734 C 104.76372 49.427734 111.83844 56.494258 111.85547 65.253906 L 111.85742 64.285156 C 111.85742 55.510866 104.77428 48.427734 96 48.427734 z M 59 96 C 59 96.335142 59.013627 96.667132 59.023438 97 L 67.986328 97 C 67.986328 112.85715 81.411429 123.95703 96 123.95703 C 110.58857 123.95703 124.01367 112.85715 124.01367 97 L 132.97656 97 C 132.98637 96.667097 133 96.335142 133 96 L 124.01367 96 C 124.01367 111.85715 110.58857 122.95703 96 122.95703 C 81.411429 122.95703 67.986328 111.85715 67.986328 96 L 59 96 z "
         transform="translate(0,860.36216)"
         id="path5938" />
      <path
         style="fill:#3e2723;opacity:0.2"
         d="M 111.85547 65.253906 L 111.80469 96 C 111.80469 104.77429 104.77428 111.85742 96 111.85742 C 87.225715 111.85742 80.142578 104.77429 80.142578 96 L 80.142578 97 C 80.142578 105.77429 87.225715 112.85742 96 112.85742 C 104.77428 112.85742 111.80469 105.77429 111.80469 97 L 111.85742 65.285156 C 111.85742 65.274591 111.85549 65.264466 111.85547 65.253906 z M 59 97 C 59 115.07711 73.377702 129.92953 90.714844 132.51953 L 90.714844 131.51953 C 73.699125 128.97755 59.542795 114.62159 59.023438 97 L 59 97 z M 132.97656 97 C 132.45721 114.62346 118.30088 129.02937 101.28516 131.51953 L 101.28516 132.51953 C 118.62231 129.98233 133 115.07711 133 97 L 132.97656 97 z M 90.714844 148.85742 L 90.714844 149.85742 L 101.28516 149.85742 L 101.28516 148.85742 L 90.714844 148.85742 z "
         transform="translate(0,860.36216)"
         id="path5945" />
    </g>
  </g>
  <g
     style="display:inline"
     inkscape:label="finish"
     id="layer3"
     inkscape:groupmode="layer">
    <path
       inkscape:connector-curvature="0"
       id="circle4186"
       d="M 183.97852,95.414062 A 88,88 0 0 1 96,183 88,88 0 0 1 8.0214844,95.585938 88,88 0 0 0 8,96 a 88,88 0 0 0 88,88 88,88 0 0 0 88,-88 88,88 0 0 0 -0.0215,-0.585938 z"
       style="opacity:0.2;fill:#3e2723;fill-opacity:1;fill-rule:nonzero;stroke:none;stroke-width:2.94899988;stroke-linecap:butt;stroke-linejoin:miter;stroke-miterlimit:4;stroke-dasharray:none;stroke-dashoffset:0;stroke-opacity:1" />
    <path
       inkscape:connector-curvature="0"
       id="circle4191"
       d="M 96,8 A 88,88 0 0 0 8,96 88,88 0 0 0 8.0214844,96.585938 88,88 0 0 1 96,9 88,88 0 0 1 183.97852,96.414062 88,88 0 0 0 184,96 88,88 0 0 0 96,8 Z"
       style="opacity:0.2;fill:#ffffff;fill-opacity:1;fill-rule:nonzero;stroke:none;stroke-width:2.94899988;stroke-linecap:butt;stroke-linejoin:miter;stroke-miterlimit:4;stroke-dasharray:none;stroke-dashoffset:0;stroke-opacity:1" />
    <circle
       style="opacity:0.1;fill:url(#radialGradient4204);fill-opacity:1;fill-rule:nonzero;stroke:none;stroke-width:2.94899988;stroke-linecap:butt;stroke-linejoin:miter;stroke-miterlimit:4;stroke-dasharray:none;stroke-dashoffset:0;stroke-opacity:1"
       id="circle4196"
       cx="96"
       cy="96"
       r="88" />
  </g>
</svg>
